:FULLY-SPECIFIED
:FORCE-ALL-JOINTS-BE-3DOF
:DEGREES
985
root 1.11371 15.1513 32.4948 5.37001 -4.67573 4.13218
lfemur 8.71266 1.76668 5.16868
ltibia 0 -0 0
lfoot -30.115 -11.7113 -5.87478e-07
ltoes -33.8603 0 0
rfemur -32.971 -15.5162 -6.26635
rtibia 50.8689 -0 0
rfoot -22.6521 4.96889 1.9814e-05
rtoes -41.9683 0 0
lowerback -1.52509 -0.423692 0.68194
upperback -0.727711 -0.569551 -5.91076
thorax 0.038988 -0.301491 -6.52656
lowerneck -6.64747 1.14655 5.86251
upperneck 1.05021 0.950742 3.34355
head 1.4601 0.577035 0.0887386
lclavicle -0 0 0
lhumerus -58.4632 -45.249 114.875
lradius 55.0774 -0 0
lwrist 25.2438 0 0
lhand 37.266 24.4424 2.51456e-05
lfingers 0 -0 0
lthumb 60.0927 38.125 1.1043e-05
rclavicle -0 0 0
rhumerus 3.75471 -24.9714 -0.1492
rradius 28.0484 -0 0
rwrist -11.3257 0 0
rhand -31.3896 -44.5242 -4.55823e-05
rfingers 0 -0 0
rthumb -4.65934 -74.453 -4.49086e-05
986
root 1.11707 15.1533 32.4892 5.33658 -4.66357 4.11746
lfemur 8.71704 1.74365 5.1715
ltibia 0 -0 0
lfoot -30.1153 -11.6926 -4.89565e-07
ltoes -33.8821 0 0
rfemur -32.9078 -15.5397 -6.259
rtibia 50.7878 -0 0
rfoot -22.668 4.95697 1.65117e-05
rtoes -42.065 0 0
lowerback -1.51257 -0.402282 0.677827
upperback -0.72264 -0.540801 -5.89132
thorax 0.040875 -0.286778 -6.50294
lowerneck -6.69492 1.15382 5.85001
upperneck 1.1061 0.954995 3.34838
head 1.48652 0.581545 0.092838
lclavicle -0 0 0
lhumerus -58.3969 -45.2123 114.873
lradius 55.0649 -0 0
lwrist 25.1521 0 0
lhand 37.2546 24.4213 2.09546e-05
lfingers 0 -0 0
lthumb 60.083 38.1141 9.2025e-06
rclavicle -0 0 0
rhumerus 3.75164 -24.9064 -0.158811
rradius 28.0204 -0 0
rwrist -11.2622 0 0
rhand -31.4081 -44.5007 -3.79852e-05
rfingers 0 -0 0
rthumb -4.67721 -74.429 -3.74239e-05
987
root 1.12044 15.1553 32.4837 5.30314 -4.65142 4.10273
lfemur 8.72142 1.72063 5.17431
ltibia 0 -0 0
lfoot -30.1156 -11.6739 -2.93739e-07
ltoes -33.9038 0 0
rfemur -32.8446 -15.5632 -6.25166
rtibia 50.7067 -0 0
rfoot -22.6838 4.94505 9.90702e-06
rtoes -42.1618 0 0
lowerback -1.50006 -0.380871 0.673719
upperback -0.717559 -0.512051 -5.87188
thorax 0.042768 -0.272066 -6.47932
lowerneck -6.74238 1.16109 5.8375
upperneck 1.16199 0.959243 3.35322
head 1.51293 0.586052 0.0969395
lclavicle -0 0 0
lhumerus -58.3306 -45.1755 114.871
lradius 55.0523 -0 0
lwrist 25.0604 0 0
lhand 37.2433 24.4001 1.25728e-05
lfingers 0 -0 0
lthumb 60.0733 38.1033 5.5215e-06
rclavicle -0 0 0
rhumerus 3.74857 -24.8414 -0.168421
rradius 27.9924 -0 0
rwrist -11.1986 0 0
rhand -31.4266 -44.4771 -2.27911e-05
rfingers 0 -0 0
rthumb -4.69508 -74.405 -2.24543e-05
988
root 1.1238 15.1573 32.4781 5.2697 -4.63928 364.088
lfemur 8.7258 1.6976 5.17712
ltibia 1.90833e-14 0 0
lfoot -30.1159 -11.6552 0
ltoes -33.9256 0 0
rfemur -32.7814 -15.5868 -6.24436
rtibia 50.6256 0 0
rfoot -22.6997 4.93313 0
rtoes -42.2585 0 0
lowerback -1.48754 -0.359459 0.669615
upperback -0.712469 -0.483304 -5.85243
thorax 0.0446671 -0.257355 -6.4557
lowerneck -6.78983 1.16834 5.82499
upperneck 1.21788 0.963487 3.35806
head 1.53935 0.590558 0.101043
lclavicle -1.22253e-14 0 0
lhumerus -58.2643 -45.1387 114.869
lradius 55.0398 0 0
lwrist 24.9687 0 0
lhand 37.2319 24.379 0
lfingers 7.12502 0 0
lthumb 60.0636 38.0924 0
rclavicle -1.22253e-14 0 0
rhumerus 3.74548 -24.7764 -0.17803
rradius 27.9644 0 0
rwrist -11.1351 0 0
rhand -31.4451 -44.4536 0
rfingers 7.12502 0 0
rthumb -4.71295 -794.381 0
989
root 1.12537 15.1579 32.4733 5.24504 -4.58778 4.06878
lfemur 8.70926 1.64247 5.19449
ltibia 0 -0 0
lfoot -30.1225 -11.6108 -1.53669e-05
ltoes -33.9484 0 0
rfemur -32.7185 -15.6171 -6.23378
rtibia 50.5791 -0 0
rfoot -22.7222 4.87983 6.2874e-05
rtoes -42.3662 0 0
lowerback -1.47635 -0.358071 0.659155
upperback -0.706198 -0.48122 -5.84486
thorax 0.0452547 -0.256111 -6.4415
lowerneck -6.795 1.16873 5.84041
upperneck 1.22363 0.9617 3.36965
head 1.54215 0.590279 0.102084
lclavicle -0 0 0
lhumerus -58.2939 -45.2305 114.93
lradius 55.0441 -0 0
lwrist 25.0231 0 0
lhand 37.2406 24.3817 1.24499e-06
lfingers 0 -0 0
lthumb 60.071 38.0872 -2.00978e-06
rclavicle -0 0 0
rhumerus 3.74259 -24.694 -0.200285
rradius 27.9571 -0 0
rwrist -11.1234 0 0
rhand -31.412 -44.3762 0.000134085
rfingers 0 -0 0
rthumb -4.681 -74.3043 0.000128353
990
root 1.12695 15.1585 32.4685 5.22037 -4.53628 4.04953
lfemur 8.6927 1.58735 5.21188
ltibia 0 -0 0
lfoot -30.1291 -11.5665 -2.56114e-05
ltoes -33.9712 0 0
rfemur -32.6556 -15.6475 -6.22322
rtibia 50.5326 -0 0
rfoot -22.7448 4.82653 0.00010479
rtoes -42.4739 0 0
lowerback -1.46515 -0.356681 0.648694
upperback -0.699926 -0.479137 -5.83729
thorax 0.0458426 -0.254868 -6.4273
lowerneck -6.80017 1.16912 5.85582
upperneck 1.22938 0.959911 3.38124
head 1.54496 0.589999 0.103126
lclavicle -0 0 0
lhumerus -58.3236 -45.3222 114.991
lradius 55.0484 -0 0
lwrist 25.0775 0 0
lhand 37.2493 24.3845 2.07498e-06
lfingers 0 -0 0
lthumb 60.0785 38.0821 -3.34963e-06
rclavicle -0 0 0
rhumerus 3.73967 -24.6117 -0.22253
rradius 27.9499 -0 0
rwrist -11.1116 0 0
rhand -31.3789 -44.2988 0.000223475
rfingers 0 -0 0
rthumb -4.64904 -74.2276 0.000213921
991
root 1.12852 15.1591 32.4637 5.19569 -4.4848 4.03027
lfemur 8.67612 1.53223 5.22928
ltibia 0 -0 0
lfoot -30.1357 -11.5221 -3.07337e-05
ltoes -33.994 0 0
rfemur -32.5926 -15.6778 -6.2127
rtibia 50.4861 -0 0
rfoot -22.7673 4.77323 0.000125748
rtoes -42.5816 0 0
lowerback -1.45396 -0.355289 0.638235
upperback -0.693654 -0.477055 -5.82972
thorax 0.0464308 -0.253624 -6.4131
lowerneck -6.80534 1.16951 5.87124
upperneck 1.23513 0.958122 3.39282
head 1.54776 0.58972 0.104167
lclavicle -0 0 0
lhumerus -58.3536 -45.4139 115.052
lradius 55.0527 -0 0
lwrist 25.1319 0 0
lhand 37.258 24.3872 2.48998e-06
lfingers 0 -0 0
lthumb 60.0859 38.0769 -4.01955e-06
rclavicle -0 0 0
rhumerus 3.73672 -24.5293 -0.244765
rradius 27.9426 -0 0
rwrist -11.0999 0 0
rhand -31.3458 -44.2214 0.000268171
rfingers 0 -0 0
rthumb -4.61709 -74.1509 0.000256705
992
root 1.13009 15.1597 32.4588 5.17098 -4.43332 4.01098
lfemur 8.65953 1.47712 5.2467
ltibia 0 -0 0
lfoot -30.1424 -11.4777 -3.07337e-05
ltoes -34.0169 0 0
rfemur -32.5297 -15.7082 -6.20222
rtibia 50.4397 -0 0
rfoot -22.7898 4.71992 0.000125748
rtoes -42.6894 0 0
lowerback -1.44277 -0.353895 0.627775
upperback -0.687381 -0.474974 -5.82215
thorax 0.0470194 -0.252381 -6.39891
lowerneck -6.8105 1.1699 5.88665
upperneck 1.24088 0.956331 3.40441
head 1.55057 0.589441 0.105208
lclavicle -0 0 0
lhumerus -58.3837 -45.5056 115.114
lradius 55.0571 -0 0
lwrist 25.1864 0 0
lhand 37.2668 24.3899 2.48998e-06
lfingers 0 -0 0
lthumb 60.0934 38.0718 -4.01955e-06
rclavicle -0 0 0
rhumerus 3.73373 -24.447 -0.26699
rradius 27.9354 -0 0
rwrist -11.0882 0 0
rhand -31.3128 -44.144 0.000268171
rfingers 0 -0 0
rthumb -4.58513 -74.0741 0.000256705
